<svg width="15" height="16" viewBox="0 0 15 16" fill="none" xmlns="http://www.w3.org/2000/svg">
<path d="M4.62041 1.52C5.06041 1.57 5.41041 1.93 5.47041 2.37L6.24041 5.64C6.35041 6.1 6.12041 6.58 5.69041 6.78L5.10041 7.05C5.54041 8.2 6.51041 8.99 6.51041 8.99C6.51041 8.99 7.31041 9.96 8.45041 10.4L8.72041 9.81C8.81753 9.60065 8.98421 9.43143 9.19206 9.33115C9.39992 9.23087 9.6361 9.20573 9.86041 9.26L13.1304 10.03C13.5704 10.09 13.9304 10.44 13.9804 10.88C14.0804 11.7 14.0504 12.98 13.1304 13.66C13.1304 13.66 8.98041 16.58 3.94041 11.54C-1.09959 6.5 1.82041 2.35 1.82041 2.35C2.51041 1.43 3.79041 1.41 4.60041 1.5L4.62041 1.52Z" fill="#F8F8FF"/>
</svg>
